<svg height="480pt" viewBox="0 0 480 480" width="480pt" xmlns="http://www.w3.org/2000/svg"><path d="m112 8h64v32h-64zm0 0" fill="#bddbff"/><path d="m112 440h64v32h-64zm0 0" fill="#bddbff"/><path d="m24 72h240v336h-240zm0 0" fill="#bddbff"/><g fill="#3d9ae2"><path d="m456 64h-168v-24c0-4.417969-3.582031-8-8-8h-96v-24c0-4.417969-3.582031-8-8-8h-64c-4.417969 0-8 3.582031-8 8v24h-96c-4.417969 0-8 3.582031-8 8v32c0 4.417969 3.582031 8 8 8h8v320h-8c-4.417969 0-8 3.582031-8 8v32c0 4.417969 3.582031 8 8 8h96v24c0 4.417969 3.582031 8 8 8h64c4.417969 0 8-3.582031 8-8v-24h96c4.417969 0 8-3.582031 8-8v-24h120c13.253906 0 24-10.746094 24-24v-192c0-4.417969 3.582031-8 8-8h16c13.253906 0 24-10.746094 24-24v-80c0-13.253906-10.746094-24-24-24zm-336-48h48v16h-48zm-104 32h256v16h-256zm16 32h224v320h-224zm136 384h-48v-16h48zm104-32h-256v-16h256zm192-264c0 4.417969-3.582031 8-8 8h-16c-13.253906 0-24 10.746094-24 24v192c0 4.417969-3.582031 8-8 8h-136v-320h184c4.417969 0 8 3.582031 8 8zm0 0"/><path d="m288 96h16v16h-16zm0 0"/><path d="m320 96h16v16h-16zm0 0"/><path d="m352 96h16v16h-16zm0 0"/><path d="m384 96h16v16h-16zm0 0"/><path d="m288 368h16v16h-16zm0 0"/><path d="m320 368h16v16h-16zm0 0"/><path d="m352 368h16v16h-16zm0 0"/><path d="m384 368h16v16h-16zm0 0"/><path d="m416 96h16v16h-16zm0 0"/></g></svg>